<svg xmlns="http://www.w3.org/2000/svg" viewBox="0 0 900 394" width="900" height="394">
  <defs>
    <linearGradient id="bg" x1="0%" y1="0%" x2="100%" y2="100%"><stop offset="0%" stop-color="#050c1a"/><stop offset="100%" stop-color="#0c1a2e"/></linearGradient>
    <radialGradient id="glow" cx="50%" cy="50%" r="50%"><stop offset="0%" stop-color="#0284c7" stop-opacity="0.25"/><stop offset="100%" stop-color="#0284c7" stop-opacity="0"/></radialGradient>
    <filter id="gbl"><feGaussianBlur stdDeviation="12"/></filter>
  </defs>
  <rect width="900" height="394" fill="url(#bg)"/>
  <ellipse cx="450" cy="197" rx="420" ry="180" fill="url(#glow)" filter="url(#gbl)"/>
  <!-- Surface code lattice 7x5 -->
  <!-- X plaquettes (blue tiles) -->
  <rect x="165" y="60"  width="70" height="70" rx="2" fill="#1e3a5f" opacity="0.7"/>
  <rect x="305" y="60"  width="70" height="70" rx="2" fill="#1e3a5f" opacity="0.7"/>
  <rect x="445" y="60"  width="70" height="70" rx="2" fill="#1e3a5f" opacity="0.7"/>
  <rect x="585" y="60"  width="70" height="70" rx="2" fill="#1e3a5f" opacity="0.7"/>
  <rect x="235" y="130" width="70" height="70" rx="2" fill="#1e3a5f" opacity="0.7"/>
  <rect x="375" y="130" width="70" height="70" rx="2" fill="#1e3a5f" opacity="0.7"/>
  <rect x="515" y="130" width="70" height="70" rx="2" fill="#1e3a5f" opacity="0.7"/>
  <rect x="165" y="200" width="70" height="70" rx="2" fill="#1e3a5f" opacity="0.7"/>
  <rect x="305" y="200" width="70" height="70" rx="2" fill="#1e3a5f" opacity="0.7"/>
  <rect x="445" y="200" width="70" height="70" rx="2" fill="#1e3a5f" opacity="0.7"/>
  <rect x="585" y="200" width="70" height="70" rx="2" fill="#1e3a5f" opacity="0.7"/>
  <!-- Z plaquettes (red tiles) — ERROR plaquette highlighted -->
  <rect x="235" y="60"  width="70" height="70" rx="2" fill="#7f1d1d" opacity="0.7"/>
  <rect x="375" y="60"  width="70" height="70" rx="2" fill="#7f1d1d" opacity="0.7"/>
  <rect x="515" y="60"  width="70" height="70" rx="2" fill="#7f1d1d" opacity="0.7"/>
  <rect x="165" y="130" width="70" height="70" rx="2" fill="#7f1d1d" opacity="0.7"/>
  <rect x="305" y="130" width="70" height="70" rx="2" fill="#991b1b" opacity="0.9" stroke="#dc2626" stroke-width="2"/><!-- ERROR -->
  <rect x="445" y="130" width="70" height="70" rx="2" fill="#7f1d1d" opacity="0.7"/>
  <rect x="585" y="130" width="70" height="70" rx="2" fill="#7f1d1d" opacity="0.7"/>
  <rect x="235" y="200" width="70" height="70" rx="2" fill="#7f1d1d" opacity="0.7"/>
  <rect x="375" y="200" width="70" height="70" rx="2" fill="#7f1d1d" opacity="0.7"/>
  <rect x="515" y="200" width="70" height="70" rx="2" fill="#7f1d1d" opacity="0.7"/>
  <!-- Data qubits -->
  <circle cx="235" cy="130" r="13" fill="#0f172a" stroke="#38bdf8" stroke-width="2"/>
  <circle cx="305" cy="130" r="13" fill="#0f172a" stroke="#38bdf8" stroke-width="2"/>
  <circle cx="375" cy="130" r="13" fill="#0f172a" stroke="#38bdf8" stroke-width="2"/>
  <circle cx="445" cy="130" r="13" fill="#dc2626" stroke="#fca5a5" stroke-width="2"/><!-- ERROR QUBIT -->
  <circle cx="515" cy="130" r="13" fill="#0f172a" stroke="#38bdf8" stroke-width="2"/>
  <circle cx="585" cy="130" r="13" fill="#0f172a" stroke="#38bdf8" stroke-width="2"/>
  <circle cx="235" cy="200" r="13" fill="#0f172a" stroke="#38bdf8" stroke-width="2"/>
  <circle cx="305" cy="200" r="13" fill="#0f172a" stroke="#38bdf8" stroke-width="2"/>
  <circle cx="375" cy="200" r="13" fill="#0f172a" stroke="#38bdf8" stroke-width="2"/>
  <circle cx="445" cy="200" r="13" fill="#0f172a" stroke="#38bdf8" stroke-width="2"/>
  <circle cx="515" cy="200" r="13" fill="#0f172a" stroke="#38bdf8" stroke-width="2"/>
  <circle cx="585" cy="200" r="13" fill="#0f172a" stroke="#38bdf8" stroke-width="2"/>
  <!-- Error annotation -->
  <text x="445" y="118" text-anchor="middle" font-family="monospace" font-size="10" fill="#fca5a5">ERROR</text>
  <!-- Legend -->
  <rect x="165" y="300" width="16" height="16" rx="2" fill="#1e3a5f" stroke="#38bdf8" stroke-width="1"/>
  <text x="186" y="313" font-family="system-ui,sans-serif" font-size="10" fill="#93c5fd">X-type stabiliser</text>
  <rect x="310" y="300" width="16" height="16" rx="2" fill="#7f1d1d" stroke="#dc2626" stroke-width="1"/>
  <text x="331" y="313" font-family="system-ui,sans-serif" font-size="10" fill="#fca5a5">Z-type stabiliser</text>
  <text x="450" y="365" text-anchor="middle" font-family="system-ui,sans-serif" font-size="13" fill="#93c5fd" opacity="0.45" letter-spacing="0.15em">QUANTUM ERROR CORRECTION</text>
</svg>
